<svg width="415" height="896" viewBox="0 0 415 896" fill="none" xmlns="http://www.w3.org/2000/svg">
<g clip-path="url(#clip0_1_8)">
<rect width="414" height="896" transform="translate(0.0527344)" fill="#53B175"/>
<g opacity="0.1">
<rect x="140.053" y="883" width="134" height="5" rx="2.5" fill="black"/>
</g>
<path fill-rule="evenodd" clip-rule="evenodd" d="M110.543 418.642C110.816 416.203 109.087 414 106.647 413.727C104.208 413.436 102.005 415.183 101.732 417.623C101.404 420.408 101.86 423.74 102.442 427.162C104.062 427.654 105.628 428.364 107.084 429.201C108.65 425.505 110.179 421.846 110.543 418.642ZM127.674 429.347C126.709 427.089 124.088 426.07 121.83 427.035C118.863 428.327 115.786 430.858 112.691 433.461C113.857 434.608 114.949 435.9 115.877 437.302C119.391 436.865 122.759 436.337 125.362 435.209C127.619 434.207 128.657 431.586 127.674 429.347ZM120.192 417.441C118.226 415.984 115.44 416.385 113.984 418.351C111.763 421.337 110.27 425.797 108.65 430.148C109.196 430.512 109.706 430.876 110.197 431.258C110.561 431.549 110.944 431.859 111.326 432.168C115.04 429.365 118.899 426.634 121.12 423.649C122.577 421.682 122.158 418.897 120.192 417.441Z" fill="white"/>
<path d="M111.745 453.086C110.379 454.56 108.923 455.926 107.376 457.255C105.209 459.13 103.007 460.95 100.767 462.698C98.3643 461.223 96.6349 460.477 96.3436 460.859C96.0887 461.205 97.09 462.479 98.8923 464.136C92.8483 468.633 86.4584 472.601 79.5952 475.86C78.5211 476.37 77.3924 476.734 76.2819 477.134C75.9907 477.243 75.6812 477.243 75.5537 477.262C73.8061 477.462 73.2782 476.989 73.351 475.387C73.5694 470.398 75.1168 465.72 76.7189 461.059C77.1558 459.785 77.6109 458.511 78.0842 457.236C80.5054 458.711 82.2349 459.476 82.5262 459.093C82.8357 458.675 81.3793 457 78.9398 454.906C80.6875 450.391 82.6354 445.949 84.9292 441.689C89.5168 445.094 93.5947 447.333 94.0498 446.714C94.5049 446.095 91.137 442.8 86.4948 439.359L86.2946 439.214C87.0956 437.848 87.933 436.483 88.825 435.154C89.9355 433.479 91.3009 431.95 92.648 430.457C94.4503 428.473 96.7805 427.799 99.3838 428.382C107.722 430.239 113.511 435.027 116.241 443.237C116.788 444.912 116.296 446.55 115.44 448.061C114.858 449.081 114.221 450.045 113.511 450.956C109.105 447.733 105.282 445.658 104.845 446.241C104.427 446.823 107.467 449.827 111.745 453.086Z" fill="white"/>
<path d="M165.449 423.403C159.678 423.403 155.928 425.715 153.652 430.102H153.525V427.371C153.525 425.405 151.923 423.821 149.957 423.821C147.991 423.821 146.407 425.405 146.407 427.371V457.573C146.407 459.539 147.991 461.141 149.957 461.141H150.303C152.269 461.141 153.871 459.539 153.871 457.573V439.587C153.871 433.706 157.239 429.792 162.864 429.792C168.325 429.792 170.947 432.96 170.947 438.622V457.573C170.947 459.539 172.531 461.141 174.497 461.141H174.843C176.809 461.141 178.393 459.539 178.393 457.573V437.22C178.393 428.627 173.696 423.403 165.449 423.403Z" fill="white"/>
<path d="M201.422 423.33C190.99 423.33 184.182 430.939 184.182 442.609C184.182 454.296 190.917 461.578 201.731 461.578C208.43 461.578 213.965 458.611 216.459 453.987C217.387 452.294 216.113 450.2 214.183 450.2H212.29C211.343 450.2 210.524 450.746 210.032 451.565C208.594 454.041 205.572 455.534 201.877 455.534C195.76 455.534 191.7 451.274 191.7 444.811V444.374H215.548C216.968 444.374 218.134 443.209 218.134 441.789V441.753C218.134 430.448 211.671 423.33 201.422 423.33ZM191.737 439.077C192.155 433.342 196.033 429.41 201.403 429.41C206.828 429.41 210.506 433.27 210.67 439.077H191.737Z" fill="white"/>
<path d="M252.85 448.598H250.866C249.792 448.598 248.863 449.272 248.463 450.273C247.17 453.568 244.221 455.334 240.034 455.334C234.045 455.334 230.003 450.509 230.003 442.481C230.003 434.635 233.99 429.629 239.998 429.629C244.33 429.629 247.225 431.777 248.408 434.835C248.809 435.855 249.737 436.565 250.848 436.565H252.832C254.561 436.565 255.854 434.872 255.29 433.233C253.378 427.608 247.917 423.33 239.925 423.33C229.384 423.33 222.43 430.866 222.43 442.481C222.43 454.296 229.402 461.578 239.998 461.578C247.589 461.578 253.232 457.864 255.308 451.984C255.89 450.327 254.616 448.598 252.85 448.598Z" fill="white"/>
<path d="M275.206 455.279C275.078 455.261 274.932 455.243 274.805 455.243C272.347 454.951 271.2 453.422 271.2 450.546V429.701H275.406C277.044 429.701 278.355 428.372 278.355 426.752C278.355 425.132 277.044 423.821 275.406 423.821H271.2V419.143C271.2 418.123 270.782 417.195 270.108 416.521C269.435 415.848 268.524 415.429 267.487 415.429C265.448 415.429 263.791 417.104 263.791 419.143V423.821H261.57C259.95 423.821 258.621 425.132 258.621 426.752C258.621 428.372 259.95 429.701 261.57 429.701H263.791V451.31C263.791 458.52 266.667 461.378 274.131 461.378C274.15 461.378 274.168 461.378 274.168 461.378C275.023 461.378 275.806 461.123 276.462 460.668C276.48 460.668 276.498 460.65 276.498 460.65C277.263 460.103 277.772 459.211 277.772 458.21C277.772 456.717 276.662 455.461 275.206 455.279Z" fill="white"/>
<path d="M299.418 423.33C293.592 423.33 288.786 425.696 286.329 429.355C285.928 429.974 285.728 430.648 285.728 431.303C285.728 433.124 287.184 434.817 289.241 434.817C290.443 434.817 291.59 434.18 292.154 433.124C293.356 430.866 295.923 429.483 299.218 429.483C304.206 429.483 307.046 431.831 307.046 436.091V436.546C307.046 437.912 305.99 439.04 304.624 439.113L296.978 439.55C287.767 440.133 282.724 443.919 282.724 450.455C282.724 457.118 287.876 461.505 295.34 461.505C300.419 461.505 305.061 458.975 307.119 454.915H307.282V457.573C307.282 458.556 307.683 459.448 308.32 460.103C308.975 460.741 309.867 461.141 310.851 461.141C312.817 461.141 314.4 459.539 314.4 457.573V435.545C314.4 428.154 308.52 423.33 299.418 423.33ZM307.046 447.123C307.046 452.02 302.859 455.57 297.324 455.57C293.028 455.57 290.243 453.513 290.243 450.309C290.243 447.014 292.901 445.121 297.98 444.811L307.046 444.192V447.123Z" fill="white"/>
<path d="M338.158 423.439C333.752 423.439 330.33 425.951 329.146 430.102H329.019V427.371C329.019 425.405 327.417 423.821 325.469 423.821C323.503 423.821 321.901 425.405 321.901 427.371V457.409C321.901 458.429 322.32 459.375 322.993 460.049C323.667 460.722 324.595 461.141 325.633 461.141C327.69 461.141 329.365 459.466 329.365 457.409V438.877C329.365 433.615 332.46 430.211 337.375 430.211C337.575 430.211 337.794 430.211 337.994 430.229C339.523 430.284 340.761 429.028 340.761 427.499V426.06C340.761 424.622 339.596 423.439 338.158 423.439Z" fill="white"/>
<path d="M277.773 458.21C277.773 459.211 277.263 460.103 276.498 460.649C276.498 460.649 276.48 460.668 276.462 460.668C275.988 460.995 275.424 461.177 274.805 461.177C273.149 461.177 271.82 459.848 271.82 458.21C271.82 456.572 273.149 455.243 274.805 455.243C274.933 455.243 275.078 455.261 275.206 455.279C276.662 455.461 277.773 456.717 277.773 458.21Z" fill="white"/>
<path d="M155.409 476.423C154.69 477.132 153.817 477.487 152.791 477.487C151.764 477.487 150.891 477.132 150.173 476.423C149.463 475.713 149.109 474.841 149.109 473.805C149.109 472.769 149.463 471.896 150.173 471.187C150.891 470.477 151.764 470.123 152.791 470.123C153.817 470.123 154.69 470.477 155.409 471.187C156.127 471.896 156.487 472.769 156.487 473.805C156.487 474.841 156.127 475.713 155.409 476.423ZM152.791 476.297C153.491 476.297 154.079 476.059 154.555 475.583C155.031 475.107 155.269 474.514 155.269 473.805C155.269 473.095 155.031 472.503 154.555 472.027C154.079 471.551 153.491 471.313 152.791 471.313C152.1 471.313 151.517 471.551 151.041 472.027C150.565 472.503 150.327 473.095 150.327 473.805C150.327 474.514 150.565 475.107 151.041 475.583C151.517 476.059 152.1 476.297 152.791 476.297ZM166.909 470.123C167.73 470.123 168.388 470.384 168.883 470.907C169.377 471.42 169.625 472.12 169.625 473.007V477.305H168.407V473.077C168.407 472.507 168.253 472.069 167.945 471.761C167.637 471.443 167.212 471.285 166.671 471.285C166.064 471.285 165.574 471.476 165.201 471.859C164.827 472.232 164.641 472.811 164.641 473.595V477.305H163.423V470.305H164.641V471.313C165.135 470.519 165.891 470.123 166.909 470.123ZM176.825 477.305V467.085H178.043V477.305H176.825ZM186.017 469.031C185.784 469.031 185.588 468.951 185.429 468.793C185.27 468.634 185.191 468.443 185.191 468.219C185.191 467.995 185.27 467.803 185.429 467.645C185.588 467.477 185.784 467.393 186.017 467.393C186.241 467.393 186.432 467.477 186.591 467.645C186.75 467.803 186.829 467.995 186.829 468.219C186.829 468.443 186.75 468.634 186.591 468.793C186.432 468.951 186.241 469.031 186.017 469.031ZM185.401 477.305V470.305H186.619V477.305H185.401ZM197.463 470.123C198.285 470.123 198.943 470.384 199.437 470.907C199.932 471.42 200.179 472.12 200.179 473.007V477.305H198.961V473.077C198.961 472.507 198.807 472.069 198.499 471.761C198.191 471.443 197.767 471.285 197.225 471.285C196.619 471.285 196.129 471.476 195.755 471.859C195.382 472.232 195.195 472.811 195.195 473.595V477.305H193.977V470.305H195.195V471.313C195.69 470.519 196.446 470.123 197.463 470.123ZM208.234 474.365C208.355 474.99 208.64 475.475 209.088 475.821C209.545 476.166 210.105 476.339 210.768 476.339C211.692 476.339 212.364 475.998 212.784 475.317L213.82 475.905C213.138 476.959 212.112 477.487 210.74 477.487C209.629 477.487 208.724 477.141 208.024 476.451C207.333 475.751 206.988 474.869 206.988 473.805C206.988 472.75 207.328 471.873 208.01 471.173C208.691 470.473 209.573 470.123 210.656 470.123C211.682 470.123 212.518 470.487 213.162 471.215C213.815 471.933 214.142 472.801 214.142 473.819C214.142 473.996 214.128 474.178 214.1 474.365H208.234ZM210.656 471.271C210.002 471.271 209.461 471.457 209.032 471.831C208.602 472.195 208.336 472.685 208.234 473.301H212.91C212.807 472.638 212.546 472.134 212.126 471.789C211.706 471.443 211.216 471.271 210.656 471.271ZM235.852 470.305H237.056V477.011C237.056 478.047 236.706 478.849 236.006 479.419C235.306 479.997 234.466 480.287 233.486 480.287C232.702 480.287 232.025 480.137 231.456 479.839C230.886 479.549 230.457 479.129 230.168 478.579L231.232 477.977C231.614 478.761 232.375 479.153 233.514 479.153C234.242 479.153 234.811 478.961 235.222 478.579C235.642 478.196 235.852 477.673 235.852 477.011V476.017C235.236 476.95 234.358 477.417 233.22 477.417C232.221 477.417 231.376 477.062 230.686 476.353C229.995 475.643 229.65 474.78 229.65 473.763C229.65 472.745 229.995 471.887 230.686 471.187C231.376 470.477 232.221 470.123 233.22 470.123C234.368 470.123 235.245 470.585 235.852 471.509V470.305ZM231.582 475.541C232.058 476.017 232.65 476.255 233.36 476.255C234.069 476.255 234.662 476.017 235.138 475.541C235.614 475.065 235.852 474.472 235.852 473.763C235.852 473.063 235.614 472.475 235.138 471.999C234.662 471.523 234.069 471.285 233.36 471.285C232.65 471.285 232.058 471.523 231.582 471.999C231.106 472.475 230.868 473.063 230.868 473.763C230.868 474.472 231.106 475.065 231.582 475.541ZM245.619 471.481C246.02 470.613 246.748 470.179 247.803 470.179V471.453C247.206 471.425 246.692 471.583 246.263 471.929C245.834 472.274 245.619 472.829 245.619 473.595V477.305H244.401V470.305H245.619V471.481ZM260.02 476.423C259.301 477.132 258.429 477.487 257.402 477.487C256.375 477.487 255.503 477.132 254.784 476.423C254.075 475.713 253.72 474.841 253.72 473.805C253.72 472.769 254.075 471.896 254.784 471.187C255.503 470.477 256.375 470.123 257.402 470.123C258.429 470.123 259.301 470.477 260.02 471.187C260.739 471.896 261.098 472.769 261.098 473.805C261.098 474.841 260.739 475.713 260.02 476.423ZM257.402 476.297C258.102 476.297 258.69 476.059 259.166 475.583C259.642 475.107 259.88 474.514 259.88 473.805C259.88 473.095 259.642 472.503 259.166 472.027C258.69 471.551 258.102 471.313 257.402 471.313C256.711 471.313 256.128 471.551 255.652 472.027C255.176 472.503 254.938 473.095 254.938 473.805C254.938 474.514 255.176 475.107 255.652 475.583C256.128 476.059 256.711 476.297 257.402 476.297ZM271.324 477.487C270.269 477.487 269.392 477.137 268.692 476.437C267.992 475.727 267.642 474.85 267.642 473.805C267.642 472.759 267.992 471.887 268.692 471.187C269.392 470.477 270.269 470.123 271.324 470.123C272.015 470.123 272.635 470.291 273.186 470.627C273.737 470.953 274.147 471.397 274.418 471.957L273.396 472.545C273.219 472.171 272.943 471.873 272.57 471.649C272.206 471.425 271.791 471.313 271.324 471.313C270.624 471.313 270.036 471.551 269.56 472.027C269.093 472.503 268.86 473.095 268.86 473.805C268.86 474.505 269.093 475.093 269.56 475.569C270.036 476.045 270.624 476.283 271.324 476.283C271.791 476.283 272.211 476.175 272.584 475.961C272.957 475.737 273.242 475.438 273.438 475.065L274.474 475.667C274.175 476.217 273.746 476.661 273.186 476.997C272.626 477.323 272.005 477.487 271.324 477.487ZM281.935 474.365C282.056 474.99 282.341 475.475 282.789 475.821C283.246 476.166 283.806 476.339 284.469 476.339C285.393 476.339 286.065 475.998 286.485 475.317L287.521 475.905C286.839 476.959 285.813 477.487 284.441 477.487C283.33 477.487 282.425 477.141 281.725 476.451C281.034 475.751 280.689 474.869 280.689 473.805C280.689 472.75 281.029 471.873 281.711 471.173C282.392 470.473 283.274 470.123 284.357 470.123C285.383 470.123 286.219 470.487 286.863 471.215C287.516 471.933 287.843 472.801 287.843 473.819C287.843 473.996 287.829 474.178 287.801 474.365H281.935ZM284.357 471.271C283.703 471.271 283.162 471.457 282.733 471.831C282.303 472.195 282.037 472.685 281.935 473.301H286.611C286.508 472.638 286.247 472.134 285.827 471.789C285.407 471.443 284.917 471.271 284.357 471.271ZM295.961 471.481C296.362 470.613 297.09 470.179 298.145 470.179V471.453C297.548 471.425 297.034 471.583 296.605 471.929C296.176 472.274 295.961 472.829 295.961 473.595V477.305H294.743V470.305H295.961V471.481ZM305.453 469.031C305.219 469.031 305.023 468.951 304.865 468.793C304.706 468.634 304.627 468.443 304.627 468.219C304.627 467.995 304.706 467.803 304.865 467.645C305.023 467.477 305.219 467.393 305.453 467.393C305.677 467.393 305.868 467.477 306.027 467.645C306.185 467.803 306.265 467.995 306.265 468.219C306.265 468.443 306.185 468.634 306.027 468.793C305.868 468.951 305.677 469.031 305.453 469.031ZM304.837 477.305V470.305H306.055V477.305H304.837ZM314.267 474.365C314.388 474.99 314.673 475.475 315.121 475.821C315.578 476.166 316.138 476.339 316.801 476.339C317.725 476.339 318.397 475.998 318.817 475.317L319.853 475.905C319.171 476.959 318.145 477.487 316.773 477.487C315.662 477.487 314.757 477.141 314.057 476.451C313.366 475.751 313.021 474.869 313.021 473.805C313.021 472.75 313.361 471.873 314.043 471.173C314.724 470.473 315.606 470.123 316.689 470.123C317.715 470.123 318.551 470.487 319.195 471.215C319.848 471.933 320.175 472.801 320.175 473.819C320.175 473.996 320.161 474.178 320.133 474.365H314.267ZM316.689 471.271C316.035 471.271 315.494 471.457 315.065 471.831C314.635 472.195 314.369 472.685 314.267 473.301H318.943C318.84 472.638 318.579 472.134 318.159 471.789C317.739 471.443 317.249 471.271 316.689 471.271ZM330.678 471.481H328.816V475.275C328.816 475.62 328.881 475.867 329.012 476.017C329.152 476.157 329.362 476.231 329.642 476.241C329.922 476.241 330.267 476.231 330.678 476.213V477.305C329.614 477.445 328.834 477.361 328.34 477.053C327.845 476.735 327.598 476.143 327.598 475.275V471.481H326.212V470.305H327.598V468.709L328.816 468.345V470.305H330.678V471.481Z" fill="white"/>
</g>
<defs>
<clipPath id="clip0_1_8">
<rect width="414" height="896" fill="white" transform="translate(0.0527344)"/>
</clipPath>
</defs>
</svg>
